<svg width="48" height="55" fill="none" xmlns="http://www.w3.org/2000/svg"><path d="M12.723 27.67c0-1.454-1.01-2.323-2.791-2.323-.727 0-1.219.07-1.477.14v4.67c.306.068.681.093 1.196.093 1.9 0 3.072-.962 3.072-2.58zm11.03-2.277c-.797 0-1.314.07-1.62.142V35.88c.306.07.798.07 1.243.07 3.237.024 5.35-1.76 5.35-5.535.024-3.285-1.9-5.022-4.973-5.022z" fill="#ED4C5C"/><path d="M44.886 19.316H43.59v-6.258a.858.858 0 00-.011-.118 1.043 1.043 0 00-.251-.687L32.915.362l-.008-.008a1.083 1.083 0 00-.488-.304l-.057-.02C32.282.01 32.2 0 32.119 0H6.529A2.12 2.12 0 004.41 2.118v17.198H3.114a3.026 3.026 0 00-3.026 3.026v15.74a3.028 3.028 0 003.026 3.026H4.41v10.776a2.12 2.12 0 002.118 2.118H41.47a2.12 2.12 0 002.118-2.118V41.108h1.297a3.027 3.027 0 003.026-3.026v-15.74a3.027 3.027 0 00-3.026-3.026zM6.53 2.117h24.53v10.835c0 .585.474 1.058 1.06 1.058h9.354v5.305H6.53V2.117zm25.997 28.178c0 3.026-1.102 5.115-2.63 6.405-1.665 1.383-4.197 2.041-7.294 2.041-1.854 0-3.166-.119-4.06-.233V22.977c1.314-.21 3.027-.327 4.834-.327 3.002 0 4.95.54 6.474 1.689 1.643 1.219 2.676 3.166 2.676 5.957zM4.91 38.58V22.977c1.102-.188 2.652-.327 4.832-.327 2.206 0 3.779.423 4.833 1.266 1.008.798 1.687 2.112 1.687 3.66 0 1.55-.515 2.862-1.454 3.753-1.22 1.15-3.026 1.666-5.138 1.666a8.97 8.97 0 01-1.219-.07v5.654h-3.54zm36.561 12.73H6.53V41.108h34.94V51.31zM44.54 25.7h-6.078v3.613h5.678v2.91h-5.678v6.356h-3.587V22.767h9.665v2.932z" fill="#ED4C5C"/></svg>