<svg width="32" height="32" fill="none" xmlns="http://www.w3.org/2000/svg"><path d="M24 3.3C21.65 1.85 18.95 1 16 1v2.3h8z" fill="#ED4C5C"/><path d="M16 5.6h10.8c-.85-.85-1.8-1.65-2.8-2.3h-8v2.3z" fill="#fff"/><path d="M16 7.9h12.65c-.55-.85-1.15-1.6-1.8-2.3H16v2.3z" fill="#ED4C5C"/><path d="M16 10.2h13.85c-.35-.8-.75-1.6-1.2-2.3H16v2.3z" fill="#fff"/><path d="M16 12.5h14.6c-.2-.8-.45-1.55-.75-2.3H16v2.3z" fill="#ED4C5C"/><path d="M16 14.85h14.95c-.05-.8-.2-1.55-.35-2.3H16v2.3z" fill="#fff"/><path d="M30.95 14.85H16V16H1c0 .4 0 .75.05 1.15h29.9c.05-.4.05-.75.05-1.15 0-.4 0-.8-.05-1.15z" fill="#ED4C5C"/><path d="M1.4 19.45h29.2c.2-.75.3-1.5.35-2.3H1.05c.05.75.15 1.55.35 2.3z" fill="#fff"/><path d="M2.15 21.75h27.7c.3-.75.55-1.5.75-2.3H1.4c.2.8.45 1.55.75 2.3z" fill="#ED4C5C"/><path d="M3.35 24.05h25.3c.45-.75.85-1.5 1.2-2.3H2.15c.35.8.75 1.55 1.2 2.3z" fill="#fff"/><path d="M5.15 26.35h21.7c.65-.7 1.3-1.5 1.8-2.3H3.35c.5.85 1.15 1.6 1.8 2.3z" fill="#ED4C5C"/><path d="M7.95 28.65h16.1c1.05-.65 1.95-1.45 2.8-2.3H5.15c.85.9 1.8 1.65 2.8 2.3z" fill="#fff"/><path d="M16 31c2.95 0 5.7-.85 8.05-2.35H7.95C10.3 30.15 13.05 31 16 31z" fill="#ED4C5C"/><path d="M8 3.3c-1.05.65-2 1.45-2.85 2.3-.7.7-1.3 1.5-1.8 2.3-.45.75-.9 1.5-1.2 2.3-.3.75-.55 1.5-.75 2.3-.2.75-.3 1.5-.35 2.3C1 15.2 1 15.6 1 16h15V1c-2.95 0-5.65.85-8 2.3z" fill="#428BC1"/><path d="M12.5 1.5l.25.75h.75l-.6.5.2.75-.6-.45-.6.45.2-.75-.6-.5h.75l.25-.75zm2 3l.25.75h.75l-.6.5.2.75-.6-.45-.6.45.2-.75-.6-.5h.75l.25-.75zm-4 0l.25.75h.75l-.6.5.2.75-.6-.45-.6.45.2-.75-.6-.5h.75l.25-.75zm2 3l.25.75h.75l-.6.5.2.75-.6-.45-.6.45.2-.75-.6-.5h.75l.25-.75zm-4 0l.25.75h.75l-.6.5.2.75-.6-.45-.6.45.2-.75-.6-.5h.75l.25-.75zm-4 0l.25.75h.75l-.6.5.2.75-.6-.45-.6.45.2-.75-.6-.5h.75l.25-.75zm10 3l.25.75h.75l-.6.5.2.75-.6-.45-.6.45.2-.75-.6-.5h.75l.25-.75zm-4 0l.25.75h.75l-.6.5.2.75-.6-.45-.6.45.2-.75-.6-.5h.75l.25-.75zm-4 0l.25.75h.75l-.6.5.2.75-.6-.45-.6.45.2-.75-.6-.5h.75l.25-.75zm6 3l.25.75h.75l-.6.5.2.75-.6-.45-.6.45.2-.75-.6-.5h.75l.25-.75zm-4 0l.25.75h.75l-.6.5.2.75-.6-.45-.6.45.2-.75-.6-.5h.75l.25-.75zm-4 0l.25.75h.75l-.6.5.2.75-.6-.45-.6.45.2-.75-.6-.5h.75l.25-.75zm1.4-7l.6-.45.6.45-.25-.75.6-.5H6.7l-.2-.75-.25.75h-.7l.6.45-.25.8zm-4 6l.6-.45.6.45-.25-.75.6-.5h-.7l-.25-.75-.25.75h-.5c0 .05-.05.1-.05.15l.4.3-.2.8z" fill="#fff"/></svg>