<svg width="70" height="56" fill="none" xmlns="http://www.w3.org/2000/svg"><path d="M43.75 43.18h-5.79V24.25a.627.627 0 00-.624-.625h-4.688a.627.627 0 00-.625.625v18.93H26.25a.623.623 0 00-.492 1.008l8.75 11.07a.627.627 0 00.984 0l8.75-11.07a.623.623 0 00-.492-1.008z" fill="#ED4C5C"/><path d="M58.39 16.648C54.813 7.211 45.696.5 35.017.5 24.336.5 15.219 7.203 11.64 16.64 4.945 18.399 0 24.5 0 31.75c0 8.633 6.992 15.625 15.617 15.625h3.133a.627.627 0 00.625-.625v-4.688a.627.627 0 00-.625-.624h-3.133a9.631 9.631 0 01-6.953-2.946 9.683 9.683 0 01-2.726-7.078c.07-2.062.773-4 2.046-5.633a9.79 9.79 0 015.164-3.414l2.961-.773 1.086-2.86a18.788 18.788 0 012.79-4.953 19.189 19.189 0 014.093-3.898A18.915 18.915 0 0135.016 6.43c3.945 0 7.726 1.195 10.937 3.453a19.201 19.201 0 014.094 3.898 18.909 18.909 0 012.789 4.953l1.078 2.852 2.953.781a9.732 9.732 0 017.196 9.383 9.633 9.633 0 01-2.836 6.852 9.617 9.617 0 01-6.844 2.836H51.25a.627.627 0 00-.625.624v4.688c0 .344.281.625.625.625h3.133C63.008 47.375 70 40.383 70 31.75c0-7.242-4.93-13.336-11.61-15.102z" fill="#ED4C5C"/></svg>