<svg width="48" height="60" fill="none" xmlns="http://www.w3.org/2000/svg"><path fill-rule="evenodd" clip-rule="evenodd" d="M24.973.487L46.874 7.95c.535.186.974.799.96 1.366v31.092c0 .574-.367 1.322-.811 1.67L24.806 59.39a1.32 1.32 0 01-.812.264c-.297 0-.587-.09-.813-.264L.964 42.078C.52 41.724.152 40.977.152 40.41V9.317c0-.567.439-1.186.974-1.366l21.9-7.464c.265-.09.62-.135.974-.135.355 0 .709.045.973.135zM24 54.137l19.207-14.965v-27.56L24 5.062 4.793 11.611v27.56L24 54.139z" fill="#ED4C5C"/><path fill-rule="evenodd" clip-rule="evenodd" d="M16.968 31.083l-4.995 4.995a.518.518 0 000 .728l2.191 2.192c.2.2.529.2.729 0l4.995-4.995a9.287 9.287 0 0011.511-1.296 9.286 9.286 0 000-13.136 9.286 9.286 0 00-13.135 0 9.288 9.288 0 00-1.296 11.512zM28.48 22.49a5.16 5.16 0 00-7.296 7.296 5.154 5.154 0 007.296 0 5.154 5.154 0 000-7.296z" fill="#ED4C5C"/></svg>