<svg width="172" height="29" viewBox="0 0 172 29" fill="none" xmlns="http://www.w3.org/2000/svg">
<path d="M46.386 18.931C46.518 18.931 46.635 18.982 46.737 19.084L47.691 20.119C47.163 20.773 46.512 21.274 45.738 21.622C44.97 21.97 44.046 22.144 42.966 22.144C42 22.144 41.13 21.979 40.356 21.649C39.588 21.319 38.931 20.86 38.385 20.272C37.839 19.684 37.419 18.982 37.125 18.166C36.837 17.35 36.693 16.459 36.693 15.493C36.693 14.515 36.849 13.621 37.161 12.811C37.473 11.995 37.911 11.293 38.475 10.705C39.045 10.117 39.723 9.661 40.509 9.337C41.295 9.007 42.165 8.842 43.119 8.842C44.067 8.842 44.907 8.998 45.639 9.31C46.377 9.622 47.004 10.03 47.52 10.534L46.71 11.659C46.662 11.731 46.599 11.794 46.521 11.848C46.449 11.902 46.347 11.929 46.215 11.929C46.125 11.929 46.032 11.905 45.936 11.857C45.84 11.803 45.735 11.74 45.621 11.668C45.507 11.59 45.375 11.506 45.225 11.416C45.075 11.326 44.901 11.245 44.703 11.173C44.505 11.095 44.274 11.032 44.01 10.984C43.752 10.93 43.452 10.903 43.11 10.903C42.528 10.903 41.994 11.008 41.508 11.218C41.028 11.422 40.614 11.722 40.266 12.118C39.918 12.508 39.648 12.988 39.456 13.558C39.264 14.122 39.168 14.767 39.168 15.493C39.168 16.225 39.27 16.876 39.474 17.446C39.684 18.016 39.966 18.496 40.32 18.886C40.674 19.276 41.091 19.576 41.571 19.786C42.051 19.99 42.567 20.092 43.119 20.092C43.449 20.092 43.746 20.074 44.01 20.038C44.28 20.002 44.526 19.945 44.748 19.867C44.976 19.789 45.189 19.69 45.387 19.57C45.591 19.444 45.792 19.291 45.99 19.111C46.05 19.057 46.113 19.015 46.179 18.985C46.245 18.949 46.314 18.931 46.386 18.931ZM56.9724 20.002V22H49.3494V8.986H51.7704V20.002H56.9724ZM70.6549 15.493C70.6549 16.447 70.4959 17.332 70.1779 18.148C69.8659 18.958 69.4219 19.66 68.8459 20.254C68.2699 20.848 67.5769 21.313 66.7669 21.649C65.9569 21.979 65.0569 22.144 64.0669 22.144C63.0829 22.144 62.1859 21.979 61.3759 21.649C60.5659 21.313 59.8699 20.848 59.2879 20.254C58.7119 19.66 58.2649 18.958 57.9469 18.148C57.6289 17.332 57.4699 16.447 57.4699 15.493C57.4699 14.539 57.6289 13.657 57.9469 12.847C58.2649 12.031 58.7119 11.326 59.2879 10.732C59.8699 10.138 60.5659 9.676 61.3759 9.346C62.1859 9.01 63.0829 8.842 64.0669 8.842C64.7269 8.842 65.3479 8.92 65.9299 9.076C66.5119 9.226 67.0459 9.442 67.5319 9.724C68.0179 10 68.4529 10.339 68.8369 10.741C69.2269 11.137 69.5569 11.581 69.8269 12.073C70.0969 12.565 70.3009 13.099 70.4389 13.675C70.5829 14.251 70.6549 14.857 70.6549 15.493ZM68.1799 15.493C68.1799 14.779 68.0839 14.14 67.8919 13.576C67.6999 13.006 67.4269 12.523 67.0729 12.127C66.7189 11.731 66.2869 11.428 65.7769 11.218C65.2729 11.008 64.7029 10.903 64.0669 10.903C63.4309 10.903 62.8579 11.008 62.3479 11.218C61.8439 11.428 61.4119 11.731 61.0519 12.127C60.6979 12.523 60.4249 13.006 60.2329 13.576C60.0409 14.14 59.9449 14.779 59.9449 15.493C59.9449 16.207 60.0409 16.849 60.2329 17.419C60.4249 17.983 60.6979 18.463 61.0519 18.859C61.4119 19.249 61.8439 19.549 62.3479 19.759C62.8579 19.969 63.4309 20.074 64.0669 20.074C64.7029 20.074 65.2729 19.969 65.7769 19.759C66.2869 19.549 66.7189 19.249 67.0729 18.859C67.4269 18.463 67.6999 17.983 67.8919 17.419C68.0839 16.849 68.1799 16.207 68.1799 15.493ZM78.019 20.047C78.487 20.047 78.904 19.969 79.27 19.813C79.642 19.657 79.954 19.438 80.206 19.156C80.458 18.874 80.65 18.532 80.782 18.13C80.92 17.728 80.989 17.278 80.989 16.78V8.986H83.41V16.78C83.41 17.554 83.284 18.271 83.032 18.931C82.786 19.585 82.429 20.152 81.961 20.632C81.499 21.106 80.935 21.478 80.269 21.748C79.603 22.012 78.853 22.144 78.019 22.144C77.179 22.144 76.426 22.012 75.76 21.748C75.094 21.478 74.527 21.106 74.059 20.632C73.597 20.152 73.24 19.585 72.988 18.931C72.742 18.271 72.619 17.554 72.619 16.78V8.986H75.04V16.771C75.04 17.269 75.106 17.719 75.238 18.121C75.376 18.523 75.571 18.868 75.823 19.156C76.081 19.438 76.393 19.657 76.759 19.813C77.131 19.969 77.551 20.047 78.019 20.047ZM97.6964 15.493C97.6964 16.447 97.5374 17.323 97.2194 18.121C96.9014 18.919 96.4544 19.606 95.8784 20.182C95.3024 20.758 94.6094 21.205 93.7994 21.523C92.9894 21.841 92.0894 22 91.0994 22H86.1404V8.986H91.0994C92.0894 8.986 92.9894 9.148 93.7994 9.472C94.6094 9.79 95.3024 10.237 95.8784 10.813C96.4544 11.383 96.9014 12.067 97.2194 12.865C97.5374 13.663 97.6964 14.539 97.6964 15.493ZM95.2124 15.493C95.2124 14.779 95.1164 14.14 94.9244 13.576C94.7384 13.006 94.4654 12.526 94.1054 12.136C93.7514 11.74 93.3194 11.437 92.8094 11.227C92.3054 11.017 91.7354 10.912 91.0994 10.912H88.5704V20.074H91.0994C91.7354 20.074 92.3054 19.969 92.8094 19.759C93.3194 19.549 93.7514 19.249 94.1054 18.859C94.4654 18.463 94.7384 17.983 94.9244 17.419C95.1164 16.849 95.2124 16.207 95.2124 15.493ZM104.703 20.11C105.153 20.11 105.531 20.056 105.837 19.948C106.143 19.84 106.386 19.696 106.566 19.516C106.752 19.336 106.884 19.126 106.962 18.886C107.046 18.646 107.088 18.391 107.088 18.121C107.088 17.839 107.043 17.587 106.953 17.365C106.863 17.137 106.722 16.945 106.53 16.789C106.338 16.627 106.089 16.504 105.783 16.42C105.483 16.336 105.12 16.294 104.694 16.294H102.255V20.11H104.703ZM102.255 10.858V14.62H104.181C105.009 14.62 105.633 14.47 106.053 14.17C106.479 13.87 106.692 13.393 106.692 12.739C106.692 12.061 106.5 11.578 106.116 11.29C105.732 11.002 105.132 10.858 104.316 10.858H102.255ZM104.316 8.986C105.168 8.986 105.897 9.067 106.503 9.229C107.109 9.391 107.604 9.622 107.988 9.922C108.378 10.222 108.663 10.585 108.843 11.011C109.023 11.437 109.113 11.917 109.113 12.451C109.113 12.757 109.068 13.051 108.978 13.333C108.888 13.609 108.747 13.87 108.555 14.116C108.369 14.356 108.129 14.575 107.835 14.773C107.547 14.971 107.202 15.139 106.8 15.277C108.588 15.679 109.482 16.645 109.482 18.175C109.482 18.727 109.377 19.237 109.167 19.705C108.957 20.173 108.651 20.578 108.249 20.92C107.847 21.256 107.352 21.52 106.764 21.712C106.176 21.904 105.504 22 104.748 22H99.8338V8.986H104.316ZM116.919 20.047C117.387 20.047 117.804 19.969 118.17 19.813C118.542 19.657 118.854 19.438 119.106 19.156C119.358 18.874 119.55 18.532 119.682 18.13C119.82 17.728 119.889 17.278 119.889 16.78V8.986H122.31V16.78C122.31 17.554 122.184 18.271 121.932 18.931C121.686 19.585 121.329 20.152 120.861 20.632C120.399 21.106 119.835 21.478 119.169 21.748C118.503 22.012 117.753 22.144 116.919 22.144C116.079 22.144 115.326 22.012 114.66 21.748C113.994 21.478 113.427 21.106 112.959 20.632C112.497 20.152 112.14 19.585 111.888 18.931C111.642 18.271 111.519 17.554 111.519 16.78V8.986H113.94V16.771C113.94 17.269 114.006 17.719 114.138 18.121C114.276 18.523 114.471 18.868 114.723 19.156C114.981 19.438 115.293 19.657 115.659 19.813C116.031 19.969 116.451 20.047 116.919 20.047ZM136.597 15.493C136.597 16.447 136.438 17.323 136.12 18.121C135.802 18.919 135.355 19.606 134.779 20.182C134.203 20.758 133.51 21.205 132.7 21.523C131.89 21.841 130.99 22 130 22H125.041V8.986H130C130.99 8.986 131.89 9.148 132.7 9.472C133.51 9.79 134.203 10.237 134.779 10.813C135.355 11.383 135.802 12.067 136.12 12.865C136.438 13.663 136.597 14.539 136.597 15.493ZM134.113 15.493C134.113 14.779 134.017 14.14 133.825 13.576C133.639 13.006 133.366 12.526 133.006 12.136C132.652 11.74 132.22 11.437 131.71 11.227C131.206 11.017 130.636 10.912 130 10.912H127.471V20.074H130C130.636 20.074 131.206 19.969 131.71 19.759C132.22 19.549 132.652 19.249 133.006 18.859C133.366 18.463 133.639 17.983 133.825 17.419C134.017 16.849 134.113 16.207 134.113 15.493ZM149.462 15.475V20.74C148.802 21.226 148.097 21.583 147.347 21.811C146.603 22.033 145.805 22.144 144.953 22.144C143.891 22.144 142.928 21.979 142.064 21.649C141.206 21.319 140.471 20.86 139.859 20.272C139.253 19.684 138.785 18.982 138.455 18.166C138.125 17.35 137.96 16.459 137.96 15.493C137.96 14.515 138.119 13.618 138.437 12.802C138.755 11.986 139.205 11.284 139.787 10.696C140.375 10.108 141.086 9.652 141.92 9.328C142.754 9.004 143.69 8.842 144.728 8.842C145.256 8.842 145.748 8.884 146.204 8.968C146.666 9.052 147.092 9.169 147.482 9.319C147.878 9.463 148.238 9.64 148.562 9.85C148.886 10.06 149.183 10.291 149.453 10.543L148.76 11.641C148.652 11.815 148.511 11.923 148.337 11.965C148.163 12.001 147.974 11.956 147.77 11.83C147.572 11.716 147.374 11.602 147.176 11.488C146.978 11.374 146.756 11.275 146.51 11.191C146.27 11.107 145.997 11.038 145.691 10.984C145.391 10.93 145.043 10.903 144.647 10.903C144.005 10.903 143.423 11.011 142.901 11.227C142.385 11.443 141.944 11.752 141.578 12.154C141.212 12.556 140.93 13.039 140.732 13.603C140.534 14.167 140.435 14.797 140.435 15.493C140.435 16.237 140.54 16.903 140.75 17.491C140.966 18.073 141.266 18.568 141.65 18.976C142.04 19.378 142.508 19.687 143.054 19.903C143.6 20.113 144.209 20.218 144.881 20.218C145.361 20.218 145.79 20.167 146.168 20.065C146.546 19.963 146.915 19.825 147.275 19.651V17.293H145.637C145.481 17.293 145.358 17.251 145.268 17.167C145.184 17.077 145.142 16.969 145.142 16.843V15.475H149.462ZM154.225 10.912V14.521H158.779V16.384H154.225V20.065H160.003V22H151.795V8.986H160.003V10.912H154.225ZM171.238 10.975H167.314V22H164.893V10.975H160.969V8.986H171.238V10.975Z" fill="white"/>
<path d="M21.605 13.05C21.605 12.615 21.75 12.18 21.75 11.6C21.75 8.41002 19.14 5.80002 15.95 5.80002C13.63 5.80002 11.745 7.10502 10.73 8.99002C10.44 8.84502 9.86001 8.70002 9.42501 8.70002C7.39501 8.70002 5.80001 10.295 5.80001 12.325C5.80001 12.615 5.80001 12.905 5.94501 13.05C3.33501 13.485 1.45001 15.515 1.45001 18.125C1.45001 20.88 3.77001 23.2 6.52501 23.2H21.025C23.78 23.2 26.1 20.88 26.1 18.125C26.1 15.515 24.215 13.34 21.605 13.05Z" fill="white"/>
</svg>
