<svg xmlns="http://www.w3.org/2000/svg" width="28" height="28" viewBox="0 0 28 28"><g><g><g/><g><path fill="#fff" d="M28 14c0 7.734-6.266 14-14 14S0 21.734 0 14 6.266 0 14 0s14 6.266 14 14zM9.892 18.099c-.14-.404-.626-.82-1.319-.82h-.141a.545.545 0 0 0-.471.268l-.956 1.589a.968.968 0 0 0 .35 1.325c.148.09.318.137.491.135a.969.969 0 0 0 .841-.478zm6.888-1.104a.864.864 0 0 0 .073-.323c0-.343-.114-.579-.316-.922l-.02-.04c-.229-.39-.794-.633-1.246-.633h-3.6v-.007l2.443-4.166 1.125-1.918 1.157-1.972c.263-.452.148-1.044-.296-1.327a.974.974 0 0 0-1.363.324l-.62 1.056h-.006l-.62-1.056a.973.973 0 0 0-1.366-.324c-.447.283-.562.875-.302 1.325l1.158 1.972-3.575 6.084H6.391c-.522 0-.98.398-1 .923A.966.966 0 0 0 6.361 17h4.159l6.258-.007zm4.86.005a.98.98 0 0 0 .98-1.016c-.025-.518-.476-.922-1-.922h-2.807l-3.265-5.52s-.222.134-.512.645a2.397 2.397 0 0 0 .04 2.375l1.468 2.51 1.138 1.937 1.83 3.116a.98.98 0 0 0 1.347.334.988.988 0 0 0 .323-1.345l-1.239-2.107V17z"/></g></g></g></svg>