<svg xmlns="http://www.w3.org/2000/svg" width="26" height="28" viewBox="0 0 26 28"><g><g><g/><g><path fill="#fff" d="M0 1.72v24.562a.27.27 0 0 0 .46.192l12.79-12.472L.46 1.528A.27.27 0 0 0 0 1.72z"/></g><g><path fill="#fff" d="M18.614 8.875L2.578.04l-.01-.005c-.276-.15-.539.223-.312.44l12.57 12.02z"/></g><g><path fill="#fff" d="M2.256 27.521c-.227.218.035.591.313.441l.01-.005 16.035-8.835-3.788-3.622z"/></g><g><path fill="#fff" d="M25.089 12.436L20.61 9.97 16.4 13.999l4.21 4.027 4.479-2.465c1.218-.673 1.218-2.452 0-3.125z"/></g></g></g></svg>