<svg width="48" height="60" viewBox="0 0 48 60" fill="none" xmlns="http://www.w3.org/2000/svg">
<path fill-rule="evenodd" clip-rule="evenodd" d="M24.9732 0.486914L46.8744 7.95059C47.4094 8.1375 47.8477 8.74981 47.8348 9.31699V40.4092C47.8348 40.9828 47.4674 41.7305 47.0227 42.0785L24.8057 59.3906C24.5865 59.5646 24.29 59.6549 23.9936 59.6549C23.6971 59.6549 23.407 59.5646 23.1814 59.3906L0.964453 42.0785C0.519727 41.724 0.152344 40.9764 0.152344 40.4092V9.31699C0.152344 8.74981 0.590625 8.13105 1.12559 7.95059L23.0268 0.486914C23.291 0.39668 23.6455 0.351562 24 0.351562C24.3545 0.351562 24.709 0.39668 24.9732 0.486914ZM24 54.1377L43.207 39.1717V11.6115L24 5.06309L4.79297 11.6115V39.1717L24 54.1377Z" fill="#ED4C5C"/>
<path fill-rule="evenodd" clip-rule="evenodd" d="M16.9682 31.0828L11.973 36.0779C11.8771 36.1748 11.8233 36.3057 11.8233 36.4421C11.8233 36.5785 11.8771 36.7093 11.973 36.8062L14.1645 38.9977C14.3643 39.1975 14.693 39.1975 14.8928 38.9977L19.8879 34.0025C23.4779 36.2648 28.2732 35.833 31.3992 32.707C35.0279 29.0783 35.0279 23.2002 31.3992 19.5715C27.7705 15.9428 21.8924 15.9428 18.2637 19.5715C15.1377 22.6975 14.7059 27.4992 16.9682 31.0828ZM28.4795 22.4912C26.4686 20.4738 23.2008 20.4738 21.1834 22.4912C19.166 24.5086 19.1725 27.7699 21.1834 29.7873C23.1943 31.8047 26.4621 31.8047 28.4795 29.7873C30.4969 27.7764 30.4969 24.5086 28.4795 22.4912Z" fill="#ED4C5C"/>
</svg>
