<?xml version="1.0" encoding="iso-8859-1"?>
<!-- Generator: Adobe Illustrator 16.0.0, SVG Export Plug-In . SVG Version: 6.00 Build 0)  -->
<!DOCTYPE svg PUBLIC "-//W3C//DTD SVG 1.1//EN" "http://www.w3.org/Graphics/SVG/1.1/DTD/svg11.dtd">
<svg version="1.1" id="Capa_1" xmlns="http://www.w3.org/2000/svg" xmlns:xlink="http://www.w3.org/1999/xlink" x="0px" y="0px"
	 width="20px" height="20px" viewBox="0 0 611.99 611.99" style="enable-background:new 0 0 611.99 611.99;"
	 xml:space="preserve">
<g>
	<g id="_x39__3_">
		<g>
			<path d="M589.105,80.63c-30.513-31.125-79.965-31.125-110.478,0L202.422,362.344l-69.061-70.438
				c-30.513-31.125-79.965-31.125-110.478,0c-30.513,31.125-30.513,81.572,0,112.678l124.29,126.776
				c30.513,31.125,79.965,31.125,110.478,0l331.453-338.033C619.619,162.202,619.619,111.755,589.105,80.63z M561.5,165.148
				c0,0-326.308,332.811-331.453,338.053c-15.247,15.553-39.982,15.553-55.249,0c0,0-125.074-127.581-125.457-128.002
				c-14.099-15.629-13.697-39.963,1.147-55.114c15.247-15.553,39.983-15.553,55.249,0l96.666,98.598l303.848-309.874
				c15.247-15.553,39.982-15.553,55.249,0C576.748,124.362,576.748,149.595,561.5,165.148z"/>
		</g>
	</g>
</g>
<g>
</g>
<g>
</g>
<g>
</g>
<g>
</g>
<g>
</g>
<g>
</g>
<g>
</g>
<g>
</g>
<g>
</g>
<g>
</g>
<g>
</g>
<g>
</g>
<g>
</g>
<g>
</g>
<g>
</g>
</svg>
