<svg width="110" height="75" viewBox="0 0 110 75" fill="none" xmlns="http://www.w3.org/2000/svg">
<path d="M53.9922 37.85C53.9922 44.15 53.3089 49.6333 51.9422 54.3C50.6089 58.9333 48.7422 62.7667 46.3422 65.8C43.9755 68.8333 41.1589 71.1 37.8922 72.6C34.6589 74.0667 31.1589 74.8 27.3922 74.8C23.6255 74.8 20.1255 74.0667 16.8922 72.6C13.6922 71.1 10.9089 68.8333 8.54219 65.8C6.17552 62.7667 4.32552 58.9333 2.99219 54.3C1.65885 49.6333 0.992188 44.15 0.992188 37.85C0.992188 31.5167 1.65885 26.0333 2.99219 21.4C4.32552 16.7667 6.17552 12.9333 8.54219 9.9C10.9089 6.86666 13.6922 4.61666 16.8922 3.15C20.1255 1.65 23.6255 0.899999 27.3922 0.899999C31.1589 0.899999 34.6589 1.65 37.8922 3.15C41.1589 4.61666 43.9755 6.86666 46.3422 9.9C48.7422 12.9333 50.6089 16.7667 51.9422 21.4C53.3089 26.0333 53.9922 31.5167 53.9922 37.85ZM41.2422 37.85C41.2422 32.6167 40.8589 28.2833 40.0922 24.85C39.3255 21.4167 38.2922 18.6833 36.9922 16.65C35.7255 14.6167 34.2589 13.2 32.5922 12.4C30.9255 11.5667 29.1922 11.15 27.3922 11.15C25.6255 11.15 23.9089 11.5667 22.2422 12.4C20.6089 13.2 19.1589 14.6167 17.8922 16.65C16.6255 18.6833 15.6089 21.4167 14.8422 24.85C14.1089 28.2833 13.7422 32.6167 13.7422 37.85C13.7422 43.0833 14.1089 47.4167 14.8422 50.85C15.6089 54.2833 16.6255 57.0167 17.8922 59.05C19.1589 61.0833 20.6089 62.5167 22.2422 63.35C23.9089 64.15 25.6255 64.55 27.3922 64.55C29.1922 64.55 30.9255 64.15 32.5922 63.35C34.2589 62.5167 35.7255 61.0833 36.9922 59.05C38.2922 57.0167 39.3255 54.2833 40.0922 50.85C40.8589 47.4167 41.2422 43.0833 41.2422 37.85ZM105.55 62.5C106.883 62.5 107.933 62.8833 108.7 63.65C109.5 64.3833 109.9 65.3667 109.9 66.6V74H60.3V69.9C60.3 69.0667 60.4667 68.2 60.8 67.3C61.1667 66.3667 61.7333 65.5333 62.5 64.8L84.45 42.8C86.2833 40.9333 87.9167 39.15 89.35 37.45C90.8167 35.75 92.0333 34.0667 93 32.4C93.9667 30.7333 94.7 29.05 95.2 27.35C95.7333 25.6167 96 23.8 96 21.9C96 20.1667 95.75 18.65 95.25 17.35C94.75 16.0167 94.0333 14.9 93.1 14C92.2 13.1 91.1 12.4333 89.8 12C88.5333 11.5333 87.1 11.3 85.5 11.3C84.0333 11.3 82.6667 11.5167 81.4 11.95C80.1667 12.35 79.0667 12.9333 78.1 13.7C77.1333 14.4333 76.3167 15.3 75.65 16.3C74.9833 17.3 74.4833 18.4 74.15 19.6C73.5833 21.1333 72.85 22.15 71.95 22.65C71.05 23.15 69.75 23.2667 68.05 23L61.55 21.85C62.05 18.3833 63.0167 15.35 64.45 12.75C65.8833 10.1167 67.6667 7.93333 69.8 6.2C71.9667 4.43333 74.4333 3.11666 77.2 2.25C80 1.35 83 0.899999 86.2 0.899999C89.5333 0.899999 92.5833 1.4 95.35 2.4C98.1167 3.36666 100.483 4.74999 102.45 6.55C104.417 8.35 105.95 10.5167 107.05 13.05C108.15 15.5833 108.7 18.4 108.7 21.5C108.7 24.1667 108.3 26.6333 107.5 28.9C106.733 31.1667 105.683 33.3333 104.35 35.4C103.05 37.4667 101.517 39.4667 99.75 41.4C97.9833 43.3333 96.1333 45.3 94.2 47.3L77.9 63.95C79.4667 63.4833 81.0167 63.1333 82.55 62.9C84.1167 62.6333 85.6 62.5 87 62.5H105.55Z" fill="#101010" fill-opacity="0.08"/>
</svg>
