<svg width="100" height="40" viewBox="0 0 100 40" fill="none" xmlns="http://www.w3.org/2000/svg">
<rect x="0.5" y="0.5" width="99" height="39" rx="5.5" stroke="white"/>
<path d="M36.0824 23.859V25H30.3914V14.969H31.7424V23.859H36.0824ZM46.3859 19.988C46.3859 20.7393 46.2669 21.43 46.0289 22.06C45.7909 22.6853 45.4549 23.2243 45.0209 23.677C44.5869 24.1297 44.0642 24.482 43.4529 24.734C42.8462 24.9813 42.1742 25.105 41.4369 25.105C40.6996 25.105 40.0276 24.9813 39.4209 24.734C38.8142 24.482 38.2939 24.1297 37.8599 23.677C37.4259 23.2243 37.0899 22.6853 36.8519 22.06C36.6139 21.43 36.4949 20.7393 36.4949 19.988C36.4949 19.2367 36.6139 18.5483 36.8519 17.923C37.0899 17.293 37.4259 16.7517 37.8599 16.299C38.2939 15.8417 38.8142 15.487 39.4209 15.235C40.0276 14.983 40.6996 14.857 41.4369 14.857C42.1742 14.857 42.8462 14.983 43.4529 15.235C44.0642 15.487 44.5869 15.8417 45.0209 16.299C45.4549 16.7517 45.7909 17.293 46.0289 17.923C46.2669 18.5483 46.3859 19.2367 46.3859 19.988ZM44.9929 19.988C44.9929 19.372 44.9089 18.819 44.7409 18.329C44.5729 17.839 44.3349 17.426 44.0269 17.09C43.7189 16.7493 43.3456 16.488 42.9069 16.306C42.4682 16.124 41.9782 16.033 41.4369 16.033C40.9002 16.033 40.4126 16.124 39.9739 16.306C39.5352 16.488 39.1596 16.7493 38.8469 17.09C38.5389 17.426 38.3009 17.839 38.1329 18.329C37.9649 18.819 37.8809 19.372 37.8809 19.988C37.8809 20.604 37.9649 21.157 38.1329 21.647C38.3009 22.1323 38.5389 22.5453 38.8469 22.886C39.1596 23.222 39.5352 23.481 39.9739 23.663C40.4126 23.8403 40.9002 23.929 41.4369 23.929C41.9782 23.929 42.4682 23.8403 42.9069 23.663C43.3456 23.481 43.7189 23.222 44.0269 22.886C44.3349 22.5453 44.5729 22.1323 44.7409 21.647C44.9089 21.157 44.9929 20.604 44.9929 19.988ZM56.4769 20.177V24.027C55.9729 24.391 55.4339 24.664 54.8599 24.846C54.2905 25.0233 53.6652 25.112 52.9839 25.112C52.1765 25.112 51.4485 24.9883 50.7999 24.741C50.1512 24.489 49.5959 24.139 49.1339 23.691C48.6765 23.2383 48.3242 22.697 48.0769 22.067C47.8295 21.437 47.7059 20.744 47.7059 19.988C47.7059 19.2227 47.8249 18.525 48.0629 17.895C48.3055 17.265 48.6485 16.726 49.0919 16.278C49.5352 15.8253 50.0742 15.4753 50.7089 15.228C51.3435 14.9807 52.0529 14.857 52.8369 14.857C53.2335 14.857 53.6022 14.8873 53.9429 14.948C54.2835 15.004 54.5985 15.088 54.8879 15.2C55.1772 15.3073 55.4455 15.4403 55.6929 15.599C55.9402 15.753 56.1712 15.928 56.3859 16.124L56.0009 16.74C55.9402 16.8333 55.8609 16.894 55.7629 16.922C55.6695 16.9453 55.5645 16.922 55.4479 16.852C55.3359 16.7867 55.2075 16.7073 55.0629 16.614C54.9182 16.5207 54.7409 16.432 54.5309 16.348C54.3255 16.2593 54.0805 16.1847 53.7959 16.124C53.5159 16.0633 53.1822 16.033 52.7949 16.033C52.2302 16.033 51.7192 16.1263 51.2619 16.313C50.8045 16.495 50.4149 16.7587 50.0929 17.104C49.7709 17.4447 49.5235 17.86 49.3509 18.35C49.1782 18.8353 49.0919 19.3813 49.0919 19.988C49.0919 20.618 49.1805 21.1827 49.3579 21.682C49.5399 22.1767 49.7965 22.599 50.1279 22.949C50.4639 23.2943 50.8699 23.558 51.3459 23.74C51.8219 23.922 52.3562 24.013 52.9489 24.013C53.4155 24.013 53.8285 23.9617 54.1879 23.859C54.5519 23.7517 54.9065 23.6047 55.2519 23.418V21.213H53.6909C53.6022 21.213 53.5299 21.1873 53.4739 21.136C53.4225 21.0847 53.3969 21.0217 53.3969 20.947V20.177H56.4769ZM59.9134 25H58.5554V14.969H59.9134V25ZM70.6062 14.969V25H69.9272C69.8199 25 69.7289 24.9813 69.6542 24.944C69.5842 24.9067 69.5142 24.8437 69.4442 24.755L63.6412 17.195C63.6506 17.3117 63.6576 17.426 63.6622 17.538C63.6669 17.65 63.6692 17.755 63.6692 17.853V25H62.4792V14.969H63.1792C63.2399 14.969 63.2912 14.9737 63.3332 14.983C63.3752 14.9877 63.4126 14.9993 63.4452 15.018C63.4779 15.032 63.5106 15.0553 63.5432 15.088C63.5759 15.116 63.6109 15.1533 63.6482 15.2L69.4512 22.753C69.4419 22.6317 69.4326 22.515 69.4232 22.403C69.4186 22.2863 69.4162 22.1767 69.4162 22.074V14.969H70.6062Z" fill="white"/>
</svg>
