<svg width="17" height="11" viewBox="0 0 17 11" fill="none" xmlns="http://www.w3.org/2000/svg">
<path d="M6.469 9.894L6.462 11H0.281V0.968999H6.462V2.075H1.639V5.407H5.545V6.471H1.639V9.894H6.469ZM16.4881 0.968999V11H15.8091C15.7017 11 15.6107 10.9813 15.5361 10.944C15.4661 10.9067 15.3961 10.8437 15.3261 10.755L9.52308 3.195C9.53241 3.31167 9.53941 3.426 9.54408 3.538C9.54874 3.65 9.55108 3.755 9.55108 3.853V11H8.36108V0.968999H9.06108C9.12174 0.968999 9.17308 0.973666 9.21508 0.982999C9.25708 0.987666 9.29441 0.999333 9.32708 1.018C9.35974 1.032 9.39241 1.05533 9.42508 1.088C9.45774 1.116 9.49274 1.15333 9.53008 1.2L15.3331 8.753C15.3237 8.63167 15.3144 8.515 15.3051 8.403C15.3004 8.28633 15.2981 8.17667 15.2981 8.074V0.968999H16.4881Z" fill="white"/>
</svg>
