<svg id="Icons" xmlns="http://www.w3.org/2000/svg" viewBox="0 0 48 48"><defs><style>.cls-1{fill:#45413c;opacity:0.15;}.cls-2{fill:#fffacf;}.cls-3{fill:#fffce5;}.cls-4{fill:none;}.cls-4,.cls-7,.cls-8,.cls-9{stroke:#45413c;stroke-linecap:round;stroke-linejoin:round;}.cls-5{fill:#ff87af;}.cls-6,.cls-9{fill:#ffb0ca;}.cls-7{fill:#ffe500;}.cls-8{fill:#9ceb60;}</style></defs><title>554-doughnut-1</title><g id="_Group_" data-name="&lt;Group&gt;"><ellipse id="_Ellipse_" data-name="&lt;Ellipse&gt;" class="cls-1" cx="24" cy="45.41" rx="15.34" ry="1.59"/><path id="_Compound_Path_" data-name="&lt;Compound Path&gt;" class="cls-2" d="M24,3.38A20.62,20.62,0,1,0,44.62,24,20.62,20.62,0,0,0,24,3.38Zm0,28.55A7.93,7.93,0,1,1,31.93,24,7.93,7.93,0,0,1,24,31.93Z"/><g id="_Group_2" data-name="&lt;Group&gt;"><path id="_Path_" data-name="&lt;Path&gt;" class="cls-3" d="M24,6.55a20.6,20.6,0,0,1,20.54,19c.05-.53.08-1.05.08-1.59A20.62,20.62,0,0,0,3.38,24c0,.54,0,1.06.08,1.59A20.6,20.6,0,0,1,24,6.55Z"/></g><path id="_Compound_Path_2" data-name="&lt;Compound Path&gt;" class="cls-4" d="M24,3.38A20.62,20.62,0,1,0,44.62,24,20.62,20.62,0,0,0,24,3.38Zm0,28.55A7.93,7.93,0,1,1,31.93,24,7.93,7.93,0,0,1,24,31.93Z"/><path id="_Compound_Path_3" data-name="&lt;Compound Path&gt;" class="cls-5" d="M41.65,22.13a4.11,4.11,0,0,0-1.43-5.33h0a4.13,4.13,0,0,1-1.87-3.25,4.12,4.12,0,0,0-3.9-3.9A4.13,4.13,0,0,1,31.2,7.78h0a4.11,4.11,0,0,0-5.33-1.43,4.11,4.11,0,0,1-3.74,0A4.11,4.11,0,0,0,16.8,7.78h0a4.13,4.13,0,0,1-3.25,1.87,4.12,4.12,0,0,0-3.9,3.9A4.13,4.13,0,0,1,7.78,16.8h0a4.11,4.11,0,0,0-1.43,5.33,4.11,4.11,0,0,1,0,3.74A4.11,4.11,0,0,0,7.78,31.2h0a4.13,4.13,0,0,1,1.87,3.25,4.12,4.12,0,0,0,3.9,3.9,4.13,4.13,0,0,1,3.25,1.87h0a4.11,4.11,0,0,0,5.33,1.43,4.11,4.11,0,0,1,3.74,0,4.11,4.11,0,0,0,5.33-1.43h0a4.13,4.13,0,0,1,3.25-1.87,4.12,4.12,0,0,0,3.9-3.9,4.13,4.13,0,0,1,1.87-3.25h0a4.11,4.11,0,0,0,1.43-5.33A4.11,4.11,0,0,1,41.65,22.13ZM24,31.93A7.93,7.93,0,1,1,31.93,24,7.93,7.93,0,0,1,24,31.93Z"/><line id="_Path_2" data-name="&lt;Path&gt;" class="cls-4" x1="10.25" y1="21.88" x2="12.37" y2="22.94"/><line id="_Path_3" data-name="&lt;Path&gt;" class="cls-4" x1="13.95" y1="30.35" x2="12.89" y2="32.46"/><line id="_Path_4" data-name="&lt;Path&gt;" class="cls-4" x1="36.16" y1="25.06" x2="36.69" y2="26.64"/><line id="_Path_5" data-name="&lt;Path&gt;" class="cls-4" x1="36.69" y1="18.71" x2="35.63" y2="19.77"/><g id="_Group_3" data-name="&lt;Group&gt;"><path id="_Path_6" data-name="&lt;Path&gt;" class="cls-6" d="M24,35.76a7.93,7.93,0,0,0,7.93-7.93,8.14,8.14,0,0,0-.23-1.92,7.93,7.93,0,0,1-15.4,0,8.14,8.14,0,0,0-.23,1.92A7.93,7.93,0,0,0,24,35.76Z"/><path id="_Path_7" data-name="&lt;Path&gt;" class="cls-6" d="M6.37,22.16a4.14,4.14,0,0,1,1.41-1.54,4.1,4.1,0,0,0,1.87-3.24,4.11,4.11,0,0,1,3.9-3.9A4.14,4.14,0,0,0,16.8,11.6a4.12,4.12,0,0,1,5.33-1.43,4.05,4.05,0,0,0,3.74,0A4.12,4.12,0,0,1,31.2,11.6a4.14,4.14,0,0,0,3.25,1.88,4.11,4.11,0,0,1,3.9,3.9,4.1,4.1,0,0,0,1.87,3.24,4.14,4.14,0,0,1,1.41,1.54l0,0a4.11,4.11,0,0,0-1.43-5.33,4.13,4.13,0,0,1-1.87-3.25,4.12,4.12,0,0,0-3.9-3.9A4.13,4.13,0,0,1,31.2,7.78a4.11,4.11,0,0,0-5.33-1.43,4.11,4.11,0,0,1-3.74,0A4.11,4.11,0,0,0,16.8,7.78a4.13,4.13,0,0,1-3.25,1.87,4.12,4.12,0,0,0-3.9,3.9A4.13,4.13,0,0,1,7.78,16.8a4.11,4.11,0,0,0-1.43,5.33Z"/></g><path id="_Compound_Path_4" data-name="&lt;Compound Path&gt;" class="cls-4" d="M41.65,22.13a4.11,4.11,0,0,0-1.43-5.33h0a4.13,4.13,0,0,1-1.87-3.25,4.12,4.12,0,0,0-3.9-3.9A4.13,4.13,0,0,1,31.2,7.78h0a4.11,4.11,0,0,0-5.33-1.43,4.11,4.11,0,0,1-3.74,0A4.11,4.11,0,0,0,16.8,7.78h0a4.13,4.13,0,0,1-3.25,1.87,4.12,4.12,0,0,0-3.9,3.9A4.13,4.13,0,0,1,7.78,16.8h0a4.11,4.11,0,0,0-1.43,5.33,4.11,4.11,0,0,1,0,3.74A4.11,4.11,0,0,0,7.78,31.2h0a4.13,4.13,0,0,1,1.87,3.25,4.12,4.12,0,0,0,3.9,3.9,4.13,4.13,0,0,1,3.25,1.87h0a4.11,4.11,0,0,0,5.33,1.43,4.11,4.11,0,0,1,3.74,0,4.11,4.11,0,0,0,5.33-1.43h0a4.13,4.13,0,0,1,3.25-1.87,4.12,4.12,0,0,0,3.9-3.9,4.13,4.13,0,0,1,1.87-3.25h0a4.11,4.11,0,0,0,1.43-5.33A4.11,4.11,0,0,1,41.65,22.13ZM24,31.93A7.93,7.93,0,1,1,31.93,24,7.93,7.93,0,0,1,24,31.93Z"/><circle id="_Path_8" data-name="&lt;Path&gt;" class="cls-7" cx="31.93" cy="13.42" r="1.59"/><circle id="_Path_9" data-name="&lt;Path&gt;" class="cls-8" cx="15.01" cy="15.01" r="1.59"/><line id="_Path_10" data-name="&lt;Path&gt;" class="cls-4" x1="27.17" y1="10.25" x2="25.59" y2="11.84"/><line id="_Path_11" data-name="&lt;Path&gt;" class="cls-4" x1="18.71" y1="10.25" x2="20.3" y2="9.19"/><circle id="_Path_12" data-name="&lt;Path&gt;" class="cls-9" cx="32.46" cy="32.46" r="1.59"/><line id="_Path_13" data-name="&lt;Path&gt;" class="cls-4" x1="21.88" y1="36.69" x2="24" y2="35.63"/></g></svg>