<svg width="134" height="32" viewBox="0 0 134 32" fill="none" xmlns="http://www.w3.org/2000/svg">
<path d="M3 3.71803V28.2805C3.00016 28.3338 3.01606 28.3859 3.04569 28.4302C3.07532 28.4745 3.11737 28.509 3.16656 28.5295C3.21575 28.55 3.2699 28.5555 3.32222 28.5454C3.37453 28.5352 3.42268 28.5098 3.46062 28.4724L16.25 15.9999L3.46062 3.52616C3.42268 3.48874 3.37453 3.46336 3.32222 3.45321C3.2699 3.44305 3.21575 3.44856 3.16656 3.46905C3.11737 3.48954 3.07532 3.5241 3.04569 3.56839C3.01606 3.61269 3.00016 3.66474 3 3.71803Z" fill="white"/>
<path d="M21.6125 10.8749L5.57627 2.03994L5.56627 2.03432C5.29002 1.88432 5.02752 2.25807 5.25377 2.47557L17.8244 14.4956L21.6125 10.8749Z" fill="white"/>
<path d="M5.25499 29.5244C5.02749 29.7419 5.28999 30.1157 5.56749 29.9657L5.57749 29.96L21.6125 21.125L17.8244 17.5032L5.25499 29.5244Z" fill="white"/>
<path d="M28.0863 14.4374L23.6081 11.9712L19.3975 15.9999L23.6081 20.0268L28.0863 17.5624C29.3044 16.8893 29.3044 15.1106 28.0863 14.4374Z" fill="white"/>
<path d="M71 2C63.2663 2 57 8.26625 57 16C57 23.7337 63.2663 30 71 30C78.7337 30 85 23.7337 85 16C85 8.26625 78.7337 2 71 2ZM65.6875 22.1181C65.6016 22.2647 65.4786 22.386 65.3309 22.4699C65.1833 22.5538 65.0161 22.5974 64.8462 22.5963C64.6731 22.5978 64.503 22.551 64.355 22.4613C64.2448 22.3974 64.1483 22.3124 64.071 22.2111C63.9937 22.1098 63.9372 21.9943 63.9047 21.8711C63.8721 21.748 63.8643 21.6196 63.8815 21.4934C63.8987 21.3672 63.9407 21.2456 64.005 21.1356L64.9606 19.5469C65.0089 19.4649 65.0778 19.3969 65.1605 19.3498C65.2431 19.3026 65.3367 19.2779 65.4319 19.2781H65.5731C66.2662 19.2781 66.7513 19.695 66.8925 20.0987L65.6875 22.1181ZM73.7781 18.9931L67.52 19H63.3606C63.2298 19.0006 63.1001 18.9745 62.9796 18.9235C62.8591 18.8724 62.7503 18.7974 62.6596 18.7031C62.569 18.6087 62.4984 18.4968 62.4523 18.3744C62.4062 18.2519 62.3854 18.1214 62.3913 17.9906C62.4113 17.4656 62.8694 17.0681 63.3912 17.0681H66.4062L69.9806 10.9838L68.8231 9.01188C68.5625 8.5625 68.6781 7.97 69.125 7.6875C69.2352 7.61625 69.3586 7.56801 69.4879 7.54569C69.6172 7.52337 69.7497 7.52742 69.8773 7.5576C70.005 7.58779 70.1253 7.64348 70.2309 7.72133C70.3365 7.79918 70.4253 7.89759 70.4919 8.01062L71.1106 9.0675H71.1175L71.7369 8.01062C71.8036 7.89817 71.8922 7.8003 71.9975 7.72284C72.1028 7.64538 72.2227 7.58991 72.3499 7.55976C72.4771 7.52961 72.609 7.52538 72.7379 7.54732C72.8668 7.56927 72.9899 7.61694 73.1 7.6875C73.5444 7.97 73.6588 8.5625 73.3962 9.01375L72.2388 10.9856L71.1138 12.9038L68.6706 17.07V17.0769H72.2712C72.7225 17.0769 73.2881 17.3194 73.5169 17.7094L73.5369 17.75C73.7388 18.0931 73.8531 18.3288 73.8531 18.6719C73.8498 18.7833 73.825 18.893 73.78 18.995L73.7781 18.9931ZM78.6375 19H76.9431V19.0069L78.1819 21.1138C78.3151 21.3356 78.3559 21.601 78.2955 21.8526C78.235 22.1043 78.0782 22.3222 77.8587 22.4594C77.7066 22.5521 77.5319 22.6012 77.3538 22.6012C77.1844 22.6012 77.0179 22.5573 76.8705 22.4738C76.723 22.3904 76.5997 22.2702 76.5125 22.125L74.6819 19.0088L73.5444 17.0713L72.0769 14.5625C71.8643 14.2043 71.7488 13.7969 71.7417 13.3804C71.7345 12.9639 71.8361 12.5528 72.0362 12.1875C72.3262 11.6756 72.5481 11.5413 72.5481 11.5413L75.8125 17.0625H78.6194C79.1444 17.0625 79.595 17.4663 79.6194 17.9844C79.6244 18.1161 79.6028 18.2475 79.5558 18.3707C79.5088 18.4938 79.4374 18.6062 79.3458 18.7011C79.2543 18.7959 79.1445 18.8713 79.0231 18.9227C78.9017 18.974 78.7712 19.0003 78.6394 19H78.6375Z" fill="white"/>
<path d="M110 7.449L119.75 6.1V15.551H110V7.449ZM120.949 5.949L134 4V15.4H120.949V5.949ZM110 16.6H119.75V26.051L110 24.699V16.6ZM120.949 16.6H134V28L121.1 26.199" fill="white"/>
</svg>
