<svg width="109" height="75" viewBox="0 0 109 75" fill="none" xmlns="http://www.w3.org/2000/svg">
<path d="M53.9922 37.85C53.9922 44.15 53.3089 49.6333 51.9422 54.3C50.6089 58.9333 48.7422 62.7667 46.3422 65.8C43.9755 68.8333 41.1589 71.1 37.8922 72.6C34.6589 74.0667 31.1589 74.8 27.3922 74.8C23.6255 74.8 20.1255 74.0667 16.8922 72.6C13.6922 71.1 10.9089 68.8333 8.54219 65.8C6.17552 62.7667 4.32552 58.9333 2.99219 54.3C1.65885 49.6333 0.992188 44.15 0.992188 37.85C0.992188 31.5167 1.65885 26.0333 2.99219 21.4C4.32552 16.7667 6.17552 12.9333 8.54219 9.9C10.9089 6.86666 13.6922 4.61666 16.8922 3.15C20.1255 1.65 23.6255 0.899999 27.3922 0.899999C31.1589 0.899999 34.6589 1.65 37.8922 3.15C41.1589 4.61666 43.9755 6.86666 46.3422 9.9C48.7422 12.9333 50.6089 16.7667 51.9422 21.4C53.3089 26.0333 53.9922 31.5167 53.9922 37.85ZM41.2422 37.85C41.2422 32.6167 40.8589 28.2833 40.0922 24.85C39.3255 21.4167 38.2922 18.6833 36.9922 16.65C35.7255 14.6167 34.2589 13.2 32.5922 12.4C30.9255 11.5667 29.1922 11.15 27.3922 11.15C25.6255 11.15 23.9089 11.5667 22.2422 12.4C20.6089 13.2 19.1589 14.6167 17.8922 16.65C16.6255 18.6833 15.6089 21.4167 14.8422 24.85C14.1089 28.2833 13.7422 32.6167 13.7422 37.85C13.7422 43.0833 14.1089 47.4167 14.8422 50.85C15.6089 54.2833 16.6255 57.0167 17.8922 59.05C19.1589 61.0833 20.6089 62.5167 22.2422 63.35C23.9089 64.15 25.6255 64.55 27.3922 64.55C29.1922 64.55 30.9255 64.15 32.5922 63.35C34.2589 62.5167 35.7255 61.0833 36.9922 59.05C38.2922 57.0167 39.3255 54.2833 40.0922 50.85C40.8589 47.4167 41.2422 43.0833 41.2422 37.85ZM108.25 64.75V74H68.25V64.75H82.9V22.6C82.9 20.9333 82.95 19.2167 83.05 17.45L72.65 26.15C72.05 26.6167 71.45 26.9167 70.85 27.05C70.2833 27.15 69.7333 27.15 69.2 27.05C68.7 26.95 68.25 26.7833 67.85 26.55C67.45 26.2833 67.15 26 66.95 25.7L63.05 20.35L85.1 1.6H95.25V64.75H108.25Z" fill="#101010" fill-opacity="0.08"/>
</svg>
