<svg width="117" height="139" viewBox="0 0 117 139" fill="none" xmlns="http://www.w3.org/2000/svg">
<path d="M66.75 114.18H60.9609V95.25C60.9609 94.9063 60.6797 94.625 60.3359 94.625H55.6484C55.3047 94.625 55.0234 94.9063 55.0234 95.25V114.18H49.25C48.7265 114.18 48.4375 114.781 48.7578 115.188L57.5078 126.258C57.5663 126.333 57.641 126.393 57.7262 126.434C57.8115 126.476 57.9051 126.498 58 126.498C58.0948 126.498 58.1885 126.476 58.2737 126.434C58.359 126.393 58.4337 126.333 58.4922 126.258L67.2422 115.188C67.5625 114.781 67.2734 114.18 66.75 114.18Z" fill="#ED4C5C"/>
<path d="M81.3906 87.6484C77.8125 78.2109 68.6953 71.5 58.0156 71.5C47.3359 71.5 38.2188 78.2031 34.6406 87.6406C27.9453 89.3984 23 95.5 23 102.75C23 111.383 29.9922 118.375 38.6172 118.375H41.75C42.0938 118.375 42.375 118.094 42.375 117.75V113.062C42.375 112.719 42.0938 112.438 41.75 112.438H38.6172C35.9844 112.438 33.5078 111.391 31.6641 109.492C29.8281 107.602 28.8516 105.055 28.9375 102.414C29.0078 100.352 29.7109 98.4141 30.9844 96.7812C32.2891 95.1172 34.1172 93.9062 36.1484 93.3672L39.1094 92.5938L40.1953 89.7344C40.8672 87.9531 41.8047 86.2891 42.9844 84.7812C44.149 83.2868 45.5286 81.973 47.0781 80.8828C50.2891 78.625 54.0703 77.4297 58.0156 77.4297C61.9609 77.4297 65.7422 78.625 68.9531 80.8828C70.5078 81.9766 71.8828 83.2891 73.0469 84.7812C74.2266 86.2891 75.1641 87.9609 75.8359 89.7344L76.9141 92.5859L79.8672 93.3672C84.1016 94.5078 87.0625 98.3594 87.0625 102.75C87.0625 105.336 86.0547 107.773 84.2266 109.602C83.33 110.503 82.2635 111.218 81.0888 111.705C79.914 112.192 78.6544 112.441 77.3828 112.438H74.25C73.9062 112.438 73.625 112.719 73.625 113.062V117.75C73.625 118.094 73.9062 118.375 74.25 118.375H77.3828C86.0078 118.375 93 111.383 93 102.75C93 95.5078 88.0703 89.4141 81.3906 87.6484Z" fill="#ED4C5C"/>
<path d="M55.9922 62.85C55.9922 69.15 55.3089 74.6333 53.9422 79.3C52.6089 83.9333 50.7422 87.7667 48.3422 90.8C45.9755 93.8333 43.1589 96.1 39.8922 97.6C36.6589 99.0667 33.1589 99.8 29.3922 99.8C25.6255 99.8 22.1255 99.0667 18.8922 97.6C15.6922 96.1 12.9089 93.8333 10.5422 90.8C8.17552 87.7667 6.32552 83.9333 4.99219 79.3C3.65885 74.6333 2.99219 69.15 2.99219 62.85C2.99219 56.5167 3.65885 51.0333 4.99219 46.4C6.32552 41.7667 8.17552 37.9333 10.5422 34.9C12.9089 31.8667 15.6922 29.6167 18.8922 28.15C22.1255 26.65 25.6255 25.9 29.3922 25.9C33.1589 25.9 36.6589 26.65 39.8922 28.15C43.1589 29.6167 45.9755 31.8667 48.3422 34.9C50.7422 37.9333 52.6089 41.7667 53.9422 46.4C55.3089 51.0333 55.9922 56.5167 55.9922 62.85ZM43.2422 62.85C43.2422 57.6167 42.8589 53.2833 42.0922 49.85C41.3255 46.4167 40.2922 43.6833 38.9922 41.65C37.7255 39.6167 36.2589 38.2 34.5922 37.4C32.9255 36.5667 31.1922 36.15 29.3922 36.15C27.6255 36.15 25.9089 36.5667 24.2422 37.4C22.6089 38.2 21.1589 39.6167 19.8922 41.65C18.6255 43.6833 17.6089 46.4167 16.8422 49.85C16.1089 53.2833 15.7422 57.6167 15.7422 62.85C15.7422 68.0833 16.1089 72.4167 16.8422 75.85C17.6089 79.2833 18.6255 82.0167 19.8922 84.05C21.1589 86.0833 22.6089 87.5167 24.2422 88.35C25.9089 89.15 27.6255 89.55 29.3922 89.55C31.1922 89.55 32.9255 89.15 34.5922 88.35C36.2589 87.5167 37.7255 86.0833 38.9922 84.05C40.2922 82.0167 41.3255 79.2833 42.0922 75.85C42.8589 72.4167 43.2422 68.0833 43.2422 62.85ZM110.25 89.75V99H70.25V89.75H84.9V47.6C84.9 45.9333 84.95 44.2167 85.05 42.45L74.65 51.15C74.05 51.6167 73.45 51.9167 72.85 52.05C72.2833 52.15 71.7333 52.15 71.2 52.05C70.7 51.95 70.25 51.7833 69.85 51.55C69.45 51.2833 69.15 51 68.95 50.7L65.05 45.35L87.1 26.6H97.25V89.75H110.25Z" fill="#101010" fill-opacity="0.08"/>
</svg>
