<svg width="117" height="131" viewBox="0 0 117 131" fill="none" xmlns="http://www.w3.org/2000/svg">
<path fill-rule="evenodd" clip-rule="evenodd" d="M58.9732 68.4869L80.8744 75.9506C81.4094 76.1375 81.8477 76.7498 81.8348 77.317V108.409C81.8348 108.983 81.4674 109.73 81.0227 110.079L58.8057 127.391C58.5865 127.565 58.29 127.655 57.9936 127.655C57.6971 127.655 57.407 127.565 57.1814 127.391L34.9645 110.079C34.5197 109.724 34.1523 108.976 34.1523 108.409V77.317C34.1523 76.7498 34.5906 76.1311 35.1256 75.9506L57.0268 68.4869C57.291 68.3967 57.6455 68.3516 58 68.3516C58.3545 68.3516 58.709 68.3967 58.9732 68.4869ZM58 122.138L77.207 107.172V79.6115L58 73.0631L38.793 79.6115V107.172L58 122.138Z" fill="#ED4C5C"/>
<path fill-rule="evenodd" clip-rule="evenodd" d="M50.9682 99.0828L45.973 104.078C45.8771 104.175 45.8233 104.306 45.8233 104.442C45.8233 104.578 45.8771 104.709 45.973 104.806L48.1645 106.998C48.3643 107.197 48.693 107.197 48.8928 106.998L53.8879 102.003C57.4779 104.265 62.2732 103.833 65.3992 100.707C69.0279 97.0783 69.0279 91.2002 65.3992 87.5715C61.7705 83.9428 55.8924 83.9428 52.2637 87.5715C49.1377 90.6975 48.7059 95.4992 50.9682 99.0828ZM62.4795 90.4912C60.4686 88.4738 57.2008 88.4738 55.1834 90.4912C53.166 92.5086 53.1725 95.7699 55.1834 97.7873C57.1943 99.8047 60.4621 99.8047 62.4795 97.7873C64.4969 95.7764 64.4969 92.5086 62.4795 90.4912Z" fill="#ED4C5C"/>
<path d="M55.9922 62.85C55.9922 69.15 55.3089 74.6333 53.9422 79.3C52.6089 83.9333 50.7422 87.7667 48.3422 90.8C45.9755 93.8333 43.1589 96.1 39.8922 97.6C36.6589 99.0667 33.1589 99.8 29.3922 99.8C25.6255 99.8 22.1255 99.0667 18.8922 97.6C15.6922 96.1 12.9089 93.8333 10.5422 90.8C8.17552 87.7667 6.32552 83.9333 4.99219 79.3C3.65885 74.6333 2.99219 69.15 2.99219 62.85C2.99219 56.5167 3.65885 51.0333 4.99219 46.4C6.32552 41.7667 8.17552 37.9333 10.5422 34.9C12.9089 31.8667 15.6922 29.6167 18.8922 28.15C22.1255 26.65 25.6255 25.9 29.3922 25.9C33.1589 25.9 36.6589 26.65 39.8922 28.15C43.1589 29.6167 45.9755 31.8667 48.3422 34.9C50.7422 37.9333 52.6089 41.7667 53.9422 46.4C55.3089 51.0333 55.9922 56.5167 55.9922 62.85ZM43.2422 62.85C43.2422 57.6167 42.8589 53.2833 42.0922 49.85C41.3255 46.4167 40.2922 43.6833 38.9922 41.65C37.7255 39.6167 36.2589 38.2 34.5922 37.4C32.9255 36.5667 31.1922 36.15 29.3922 36.15C27.6255 36.15 25.9089 36.5667 24.2422 37.4C22.6089 38.2 21.1589 39.6167 19.8922 41.65C18.6255 43.6833 17.6089 46.4167 16.8422 49.85C16.1089 53.2833 15.7422 57.6167 15.7422 62.85C15.7422 68.0833 16.1089 72.4167 16.8422 75.85C17.6089 79.2833 18.6255 82.0167 19.8922 84.05C21.1589 86.0833 22.6089 87.5167 24.2422 88.35C25.9089 89.15 27.6255 89.55 29.3922 89.55C31.1922 89.55 32.9255 89.15 34.5922 88.35C36.2589 87.5167 37.7255 86.0833 38.9922 84.05C40.2922 82.0167 41.3255 79.2833 42.0922 75.85C42.8589 72.4167 43.2422 68.0833 43.2422 62.85ZM107.55 87.5C108.883 87.5 109.933 87.8833 110.7 88.65C111.5 89.3833 111.9 90.3667 111.9 91.6V99H62.3V94.9C62.3 94.0667 62.4667 93.2 62.8 92.3C63.1667 91.3667 63.7333 90.5333 64.5 89.8L86.45 67.8C88.2833 65.9333 89.9167 64.15 91.35 62.45C92.8167 60.75 94.0333 59.0667 95 57.4C95.9667 55.7333 96.7 54.05 97.2 52.35C97.7333 50.6167 98 48.8 98 46.9C98 45.1667 97.75 43.65 97.25 42.35C96.75 41.0167 96.0333 39.9 95.1 39C94.2 38.1 93.1 37.4333 91.8 37C90.5333 36.5333 89.1 36.3 87.5 36.3C86.0333 36.3 84.6667 36.5167 83.4 36.95C82.1667 37.35 81.0667 37.9333 80.1 38.7C79.1333 39.4333 78.3167 40.3 77.65 41.3C76.9833 42.3 76.4833 43.4 76.15 44.6C75.5833 46.1333 74.85 47.15 73.95 47.65C73.05 48.15 71.75 48.2667 70.05 48L63.55 46.85C64.05 43.3833 65.0167 40.35 66.45 37.75C67.8833 35.1167 69.6667 32.9333 71.8 31.2C73.9667 29.4333 76.4333 28.1167 79.2 27.25C82 26.35 85 25.9 88.2 25.9C91.5333 25.9 94.5833 26.4 97.35 27.4C100.117 28.3667 102.483 29.75 104.45 31.55C106.417 33.35 107.95 35.5167 109.05 38.05C110.15 40.5833 110.7 43.4 110.7 46.5C110.7 49.1667 110.3 51.6333 109.5 53.9C108.733 56.1667 107.683 58.3333 106.35 60.4C105.05 62.4667 103.517 64.4667 101.75 66.4C99.9833 68.3333 98.1333 70.3 96.2 72.3L79.9 88.95C81.4667 88.4833 83.0167 88.1333 84.55 87.9C86.1167 87.6333 87.6 87.5 89 87.5H107.55Z" fill="#101010" fill-opacity="0.08"/>
</svg>
