<svg width="117" height="131" viewBox="0 0 117 131" fill="none" xmlns="http://www.w3.org/2000/svg">
<path d="M55.9922 62.85C55.9922 69.15 55.3089 74.6333 53.9422 79.3C52.6089 83.9333 50.7422 87.7667 48.3422 90.8C45.9755 93.8333 43.1589 96.1 39.8922 97.6C36.6589 99.0667 33.1589 99.8 29.3922 99.8C25.6255 99.8 22.1255 99.0667 18.8922 97.6C15.6922 96.1 12.9089 93.8333 10.5422 90.8C8.17552 87.7667 6.32552 83.9333 4.99219 79.3C3.65885 74.6333 2.99219 69.15 2.99219 62.85C2.99219 56.5167 3.65885 51.0333 4.99219 46.4C6.32552 41.7667 8.17552 37.9333 10.5422 34.9C12.9089 31.8667 15.6922 29.6167 18.8922 28.15C22.1255 26.65 25.6255 25.9 29.3922 25.9C33.1589 25.9 36.6589 26.65 39.8922 28.15C43.1589 29.6167 45.9755 31.8667 48.3422 34.9C50.7422 37.9333 52.6089 41.7667 53.9422 46.4C55.3089 51.0333 55.9922 56.5167 55.9922 62.85ZM43.2422 62.85C43.2422 57.6167 42.8589 53.2833 42.0922 49.85C41.3255 46.4167 40.2922 43.6833 38.9922 41.65C37.7255 39.6167 36.2589 38.2 34.5922 37.4C32.9255 36.5667 31.1922 36.15 29.3922 36.15C27.6255 36.15 25.9089 36.5667 24.2422 37.4C22.6089 38.2 21.1589 39.6167 19.8922 41.65C18.6255 43.6833 17.6089 46.4167 16.8422 49.85C16.1089 53.2833 15.7422 57.6167 15.7422 62.85C15.7422 68.0833 16.1089 72.4167 16.8422 75.85C17.6089 79.2833 18.6255 82.0167 19.8922 84.05C21.1589 86.0833 22.6089 87.5167 24.2422 88.35C25.9089 89.15 27.6255 89.55 29.3922 89.55C31.1922 89.55 32.9255 89.15 34.5922 88.35C36.2589 87.5167 37.7255 86.0833 38.9922 84.05C40.2922 82.0167 41.3255 79.2833 42.0922 75.85C42.8589 72.4167 43.2422 68.0833 43.2422 62.85ZM63.9 46.85C64.4 43.3833 65.3667 40.35 66.8 37.75C68.2333 35.1167 70.0167 32.9333 72.15 31.2C74.3167 29.4333 76.7833 28.1167 79.55 27.25C82.35 26.35 85.35 25.9 88.55 25.9C91.8833 25.9 94.8833 26.3833 97.55 27.35C100.25 28.2833 102.55 29.6 104.45 31.3C106.35 32.9667 107.8 34.9333 108.8 37.2C109.833 39.4667 110.35 41.9167 110.35 44.55C110.35 46.85 110.083 48.8833 109.55 50.65C109.05 52.3833 108.317 53.9 107.35 55.2C106.383 56.5 105.183 57.6 103.75 58.5C102.317 59.4 100.7 60.15 98.9 60.75C103.233 62.1167 106.467 64.2 108.6 67C110.733 69.8 111.8 73.3167 111.8 77.55C111.8 81.15 111.133 84.3333 109.8 87.1C108.467 89.8667 106.667 92.2 104.4 94.1C102.133 95.9667 99.5 97.3833 96.5 98.35C93.5333 99.3167 90.3833 99.8 87.05 99.8C83.4167 99.8 80.25 99.3833 77.55 98.55C74.85 97.7167 72.5 96.4833 70.5 94.85C68.5 93.2167 66.8 91.2167 65.4 88.85C64 86.4833 62.8 83.75 61.8 80.65L67.25 78.4C68.6833 77.8 70.0167 77.65 71.25 77.95C72.5167 78.2167 73.4333 78.8833 74 79.95C74.6 81.1167 75.25 82.2667 75.95 83.4C76.6833 84.5333 77.55 85.55 78.55 86.45C79.55 87.3167 80.7167 88.0333 82.05 88.6C83.4167 89.1333 85.0333 89.4 86.9 89.4C89 89.4 90.8333 89.0667 92.4 88.4C93.9667 87.7 95.2667 86.8 96.3 85.7C97.3667 84.6 98.15 83.3833 98.65 82.05C99.1833 80.6833 99.45 79.3167 99.45 77.95C99.45 76.2167 99.2667 74.65 98.9 73.25C98.5333 71.8167 97.7667 70.6 96.6 69.6C95.4333 68.6 93.75 67.8167 91.55 67.25C89.3833 66.6833 86.4667 66.4 82.8 66.4V57.6C85.8333 57.5667 88.35 57.2833 90.35 56.75C92.35 56.2167 93.9333 55.4833 95.1 54.55C96.3 53.5833 97.1333 52.4333 97.6 51.1C98.0667 49.7667 98.3 48.3 98.3 46.7C98.3 43.3 97.35 40.7167 95.45 38.95C93.55 37.1833 91.0167 36.3 87.85 36.3C86.3833 36.3 85.0333 36.5167 83.8 36.95C82.5667 37.35 81.45 37.9333 80.45 38.7C79.4833 39.4333 78.6667 40.3 78 41.3C77.3333 42.3 76.8333 43.4 76.5 44.6C75.9333 46.1333 75.1833 47.15 74.25 47.65C73.35 48.15 72.0667 48.2667 70.4 48L63.9 46.85Z" fill="#101010" fill-opacity="0.08"/>
<path d="M47.7229 96.6695C47.7229 95.2157 46.7128 94.3472 44.9318 94.3472C44.2049 94.3472 43.7133 94.4179 43.455 94.4868V99.1564C43.7611 99.2253 44.136 99.2502 44.6506 99.2502C46.5502 99.2502 47.7229 98.2879 47.7229 96.6695Z" fill="#ED4C5C"/>
<path d="M58.7532 94.3931C57.9555 94.3931 57.439 94.4638 57.1329 94.5346V104.88C57.439 104.951 57.9306 104.951 58.3764 104.951C61.6132 104.974 63.7251 103.191 63.7251 99.4147C63.75 96.1301 61.8255 94.3931 58.7532 94.3931Z" fill="#ED4C5C"/>
<path d="M79.8861 88.3155H78.5891V82.0581C78.588 82.0184 78.5842 81.9787 78.5776 81.9395C78.5797 81.6878 78.4907 81.4439 78.327 81.2527L67.9146 69.3616L67.9069 69.3539C67.7747 69.2104 67.6061 69.1053 67.4191 69.0497L67.3617 69.0306C67.2822 69.0108 67.2007 69.0005 67.1187 69H41.5286C40.3598 69 39.4109 69.9508 39.4109 71.1177V88.3155H38.1139C36.442 88.3155 35.0876 89.6699 35.0876 91.3419V107.082C35.0876 108.752 36.4439 110.108 38.1139 110.108H39.4109V120.884C39.4109 122.051 40.3598 123.002 41.5286 123.002H76.4714C77.6383 123.002 78.5891 122.051 78.5891 120.884V110.108H79.8861C81.558 110.108 82.9124 108.752 82.9124 107.082V91.3419C82.9124 89.6699 81.5561 88.3155 79.8861 88.3155ZM41.5286 71.1177H66.059V81.9529C66.059 82.5383 66.5334 83.0108 67.1187 83.0108H76.4733V88.3155H41.5286V71.1177ZM67.5262 99.2961C67.5262 102.322 66.4243 104.411 64.8958 105.701C63.2315 107.084 60.6987 107.742 57.6016 107.742C55.7479 107.742 54.4356 107.623 53.5422 107.509V91.977C54.8564 91.7666 56.5686 91.6499 58.3764 91.6499C61.3778 91.6499 63.3253 92.1893 64.8499 93.339C66.4932 94.5576 67.5262 96.505 67.5262 99.2961ZM39.9102 107.579V91.977C41.0121 91.7895 42.5616 91.6499 44.7424 91.6499C46.9481 91.6499 48.5206 92.0726 49.5747 92.9163C50.5828 93.714 51.2619 95.0282 51.2619 96.5758C51.2619 98.1254 50.7473 99.4377 49.8081 100.329C48.5876 101.479 46.7817 101.995 44.6697 101.995C44.2011 101.995 43.7783 101.972 43.4512 101.925V107.579H39.9102ZM76.4714 120.31H41.5286V110.108H76.4714V120.31ZM79.5398 94.6992H73.4622V98.3128H79.14V101.222H73.4622V107.579H69.8754V91.7666H79.5398V94.6992Z" fill="#ED4C5C"/>
</svg>
