<svg width="117" height="125" viewBox="0 0 117 125" fill="none" xmlns="http://www.w3.org/2000/svg">
<path d="M55.9922 62.85C55.9922 69.15 55.3089 74.6333 53.9422 79.3C52.6089 83.9333 50.7422 87.7667 48.3422 90.8C45.9755 93.8333 43.1589 96.1 39.8922 97.6C36.6589 99.0667 33.1589 99.8 29.3922 99.8C25.6255 99.8 22.1255 99.0667 18.8922 97.6C15.6922 96.1 12.9089 93.8333 10.5422 90.8C8.17552 87.7667 6.32552 83.9333 4.99219 79.3C3.65885 74.6333 2.99219 69.15 2.99219 62.85C2.99219 56.5167 3.65885 51.0333 4.99219 46.4C6.32552 41.7667 8.17552 37.9333 10.5422 34.9C12.9089 31.8667 15.6922 29.6167 18.8922 28.15C22.1255 26.65 25.6255 25.9 29.3922 25.9C33.1589 25.9 36.6589 26.65 39.8922 28.15C43.1589 29.6167 45.9755 31.8667 48.3422 34.9C50.7422 37.9333 52.6089 41.7667 53.9422 46.4C55.3089 51.0333 55.9922 56.5167 55.9922 62.85ZM43.2422 62.85C43.2422 57.6167 42.8589 53.2833 42.0922 49.85C41.3255 46.4167 40.2922 43.6833 38.9922 41.65C37.7255 39.6167 36.2589 38.2 34.5922 37.4C32.9255 36.5667 31.1922 36.15 29.3922 36.15C27.6255 36.15 25.9089 36.5667 24.2422 37.4C22.6089 38.2 21.1589 39.6167 19.8922 41.65C18.6255 43.6833 17.6089 46.4167 16.8422 49.85C16.1089 53.2833 15.7422 57.6167 15.7422 62.85C15.7422 68.0833 16.1089 72.4167 16.8422 75.85C17.6089 79.2833 18.6255 82.0167 19.8922 84.05C21.1589 86.0833 22.6089 87.5167 24.2422 88.35C25.9089 89.15 27.6255 89.55 29.3922 89.55C31.1922 89.55 32.9255 89.15 34.5922 88.35C36.2589 87.5167 37.7255 86.0833 38.9922 84.05C40.2922 82.0167 41.3255 79.2833 42.0922 75.85C42.8589 72.4167 43.2422 68.0833 43.2422 62.85ZM94.1 71.75V48.1C94.1 45.8667 94.25 43.4 94.55 40.7L72.1 71.75H94.1ZM113.95 71.75V78.9C113.95 79.5667 113.733 80.15 113.3 80.65C112.867 81.1167 112.25 81.35 111.45 81.35H104.85V99H94.1V81.35H63.6C62.7667 81.35 62.0333 81.1 61.4 80.6C60.7667 80.0667 60.3667 79.4167 60.2 78.65L58.9 72.4L93.15 26.65H104.85V71.75H113.95Z" fill="#101010" fill-opacity="0.08"/>
<path d="M79.0258 89.9597H77.7512V83.8182C77.7501 83.7791 77.7464 83.7402 77.7399 83.7017C77.7417 83.455 77.6535 83.2161 77.4918 83.0296L67.2608 71.3567L67.2533 71.3492C67.192 71.2831 67.1225 71.2251 67.0465 71.1765L66.9788 71.1352C66.9138 71.0991 66.8451 71.0701 66.7739 71.0488L66.7175 71.03C66.6394 71.0106 66.5592 71.0005 66.4787 71H41.33C40.1813 71 39.2488 71.9332 39.2488 73.0785V89.9578H37.9742C36.331 89.9578 35 91.2871 35 92.9281V108.377C35 110.016 36.3329 111.347 37.9742 111.347H39.2488V121.922C39.2488 123.067 40.1813 124 41.33 124H75.67C76.8168 124 77.7512 123.067 77.7512 121.922V111.347H79.0258C80.6671 111.347 82 110.018 82 108.377V92.9281C82 91.289 80.669 89.9597 79.0258 89.9597ZM41.33 73.0785H65.4372V83.713C65.4372 84.2876 65.9034 84.7513 66.4787 84.7513H75.6719V89.9578H41.33V73.0785ZM56.9001 101.557C54.3734 100.656 52.7058 99.2593 52.7058 97.0531C52.7058 94.464 54.8942 92.5057 58.4568 92.5057C60.1939 92.5057 61.4328 92.8436 62.3352 93.2698L61.5682 96.0167C60.5851 95.5385 59.5051 95.2925 58.4116 95.2976C56.9227 95.2976 56.2008 95.9942 56.2008 96.7602C56.2008 97.7291 57.0336 98.1553 59.0189 98.8988C61.7035 99.8901 62.9424 101.285 62.9424 103.426C62.9424 105.972 61.0042 108.133 56.8324 108.133C55.0953 108.133 53.3826 107.66 52.5254 107.186L53.2247 104.372C54.4053 104.974 55.7082 105.298 57.0336 105.318C58.6128 105.318 59.4475 104.663 59.4475 103.673C59.4475 102.727 58.7275 102.188 56.9001 101.557ZM38.9912 100.521C38.9912 95.3633 42.6892 92.5038 47.2877 92.5038C49.0699 92.5038 50.4216 92.8624 51.0308 93.1572L50.3088 95.8815C49.3956 95.4986 48.4134 95.3069 47.423 95.3183C44.7177 95.3183 42.599 96.9611 42.599 100.339C42.599 103.356 44.4019 105.271 47.4456 105.271C48.5059 105.271 49.6339 105.07 50.3314 104.776L50.8296 107.477C50.2205 107.768 48.7766 108.131 46.9512 108.131C41.6966 108.133 38.9912 104.845 38.9912 100.521ZM75.67 121.362H41.33V111.349H75.67V121.362ZM72.8914 107.907H68.8776L64.0084 92.7291H67.774L69.6221 99.1485C70.1391 100.972 70.6128 102.684 70.9738 104.575H71.0415C71.4259 102.77 71.8844 100.983 72.4158 99.2161L74.3559 92.731H78.0069L72.8914 107.907Z" fill="#ED4C5C"/>
</svg>
